<svg aria-hidden="true" style="width:0;height:0;position:absolute;overflow:hidden" xmlns="http://www.w3.org/2000/svg"><defs><symbol id="icon-header-book-open" viewBox="0 0 37 32"><path fill="#28a745" style="fill:var(--color1,#28a745)" d="M33.831 2.003c-3.419.194-10.215.902-14.41 3.474a.961.961 0 0 0-.454.823v22.742c0 .722.788 1.178 1.453.843 4.316-2.176 10.559-2.77 13.645-2.932 1.054-.056 1.873-.902 1.873-1.916V3.922c.001-1.107-.958-1.984-2.107-1.919zM16.517 5.478C12.322 2.906 5.526 2.199 2.107 2.004.958 1.939-.001 2.816-.001 3.923v21.116c0 1.015.819 1.861 1.873 1.916 3.088.162 9.333.757 13.65 2.934.663.334 1.448-.121 1.448-.841V6.29a.94.94 0 0 0-.454-.812z"/></symbol><symbol id="icon-button-icon" viewBox="0 0 16 32"><path d="m14.019 17.062-8.5 8.5a1.493 1.493 0 0 1-2.119 0L1.987 24.15a1.495 1.495 0 0 1 0-2.119l6.025-6.025-6.025-6.025a1.495 1.495 0 0 1 0-2.119l1.406-1.425a1.493 1.493 0 0 1 2.119 0l8.5 8.5c.594.588.594 1.538.006 2.125z"/></symbol><symbol id="icon-university" viewBox="0 0 32 32"><path d="M31 8v1a.498.498 0 0 1-.5.5H29v.75a.75.75 0 0 1-.75.75H3.75a.75.75 0 0 1-.75-.75V9.5H1.5A.498.498 0 0 1 1 9V8a.5.5 0 0 1 .308-.462l14.5-5.5a.496.496 0 0 1 .382 0l14.5 5.5a.503.503 0 0 1 .308.462zm-1.5 19h-27A1.5 1.5 0 0 0 1 28.5v1a.498.498 0 0 0 .5.5h29a.498.498 0 0 0 .5-.5v-1a1.5 1.5 0 0 0-1.5-1.5zM6 12v12H3.75a.75.75 0 0 0-.75.75V26h26v-1.25a.75.75 0 0 0-.75-.75H26V12h-4v12h-4V12h-4v12h-4V12H6z"/></symbol><symbol id="icon-book-reader" viewBox="0 0 32 32"><path d="M22 6a6 6 0 1 0-12 0 6 6 0 0 0 12 0zm-7.401 9.069c-3.708-2.27-9.714-2.894-12.737-3.066-1.016-.057-1.863.716-1.863 1.693v13.925c0 .896.724 1.643 1.656 1.691 2.729.143 8.249.667 12.065 2.589.586.295 1.28-.107 1.28-.742V15.785a.832.832 0 0 0-.401-.716zm15.538-3.066c-3.022.171-9.029.796-12.736 3.066a.848.848 0 0 0-.401.727v15.362c0 .637.696 1.039 1.284.744 3.815-1.92 9.333-2.444 12.061-2.588.931-.049 1.656-.796 1.656-1.691V13.697c-.001-.977-.848-1.751-1.863-1.693z"/></symbol><symbol id="icon-pencil" viewBox="0 0 32 32"><path d="m31.119 8.881-2.881 2.881a.75.75 0 0 1-1.063 0l-6.938-6.937a.75.75 0 0 1 0-1.063L23.118.881a3.006 3.006 0 0 1 4.244 0l3.756 3.756a2.995 2.995 0 0 1 0 4.244zM17.762 6.237 1.349 22.649.024 30.243a1.503 1.503 0 0 0 1.738 1.738l7.594-1.331 16.412-16.412a.75.75 0 0 0 0-1.063L18.83 6.238a.758.758 0 0 0-1.069 0zM7.756 21.244a.872.872 0 0 1 0-1.238l9.625-9.625c.344-.344.894-.344 1.238 0s.344.894 0 1.238l-9.625 9.625a.87.87 0 0 1-1.237 0zM5.5 26.5h3v2.269l-4.031.706-1.944-1.944.706-4.031H5.5v3z"/></symbol><symbol id="icon-facebook" viewBox="0 0 32 32"><path d="M31.5 16.343c0-8.563-6.938-15.5-15.5-15.5S.5 7.781.5 16.343c0 7.75 5.625 14.188 13.063 15.312V20.843H9.625v-4.5h3.938v-3.375c0-3.875 2.313-6.063 5.812-6.063 1.75 0 3.5.313 3.5.313v3.813h-1.937c-1.938 0-2.562 1.187-2.562 2.438v2.875h4.313l-.688 4.5h-3.625v10.812c7.437-1.125 13.125-7.562 13.125-15.312z"/></symbol><symbol id="icon-twitter" viewBox="0 0 32 32"><path d="M28.688 9.386c1.25-.938 2.375-2.063 3.25-3.375-1.125.5-2.438.875-3.75 1 1.375-.813 2.375-2.063 2.875-3.625a13.842 13.842 0 0 1-4.125 1.625 6.563 6.563 0 0 0-4.813-2.063 6.562 6.562 0 0 0-6.562 6.563c0 .5.062 1 .188 1.5A19.044 19.044 0 0 1 2.188 4.136c-.563.938-.875 2.063-.875 3.313 0 2.25 1.125 4.25 2.938 5.438-1.063-.063-2.125-.313-3-.813v.062c0 3.188 2.25 5.813 5.25 6.438-.5.125-1.125.25-1.688.25-.438 0-.813-.063-1.25-.125.813 2.625 3.25 4.5 6.125 4.562-2.25 1.75-5.063 2.813-8.125 2.813C1 26.074.5 26.011 0 25.949c2.875 1.875 6.313 2.938 10.063 2.938 12.062 0 18.625-9.938 18.625-18.625v-.875z"/></symbol><symbol id="icon-youtube" viewBox="0 0 45 32"><path d="M43.664 5.831c-.486-1.944-2.025-3.484-3.889-3.97C36.291.889 22.518.889 22.518.889s-13.854 0-17.338.972c-1.863.486-3.403 2.025-3.889 3.97C.319 9.234.319 16.526.319 16.526s0 7.211.972 10.694c.486 1.944 2.025 3.403 3.889 3.889C8.664 32 22.518 32 22.518 32s13.773 0 17.257-.891c1.863-.486 3.403-1.944 3.889-3.889.972-3.484.972-10.694.972-10.694s0-7.292-.972-10.694zM17.982 23.088V9.963l11.505 6.563-11.505 6.563z"/></symbol><symbol id="icon-linkedln" viewBox="0 0 32 32"><path d="M7.25 32V10.901H.687V32H7.25zM3.933 8.079c2.117 0 3.81-1.764 3.81-3.881 0-2.046-1.694-3.74-3.81-3.74-2.046 0-3.74 1.694-3.74 3.74 0 2.117 1.694 3.881 3.74 3.881zM31.736 32h.071V20.427c0-5.645-1.27-10.02-7.903-10.02-3.175 0-5.292 1.764-6.21 3.387h-.07v-2.893h-6.28V32h6.562V21.556c0-2.752.494-5.363 3.881-5.363s3.458 3.105 3.458 5.575V32h6.492z"/></symbol><symbol id="icon-up" viewBox="0 0 20 32"><path d="m10.186 5.414-6.361 6.361A2.243 2.243 0 1 1 .653 8.603L8.726.538l.087-.071L8.9.404l.095-.063.095-.055.11-.055.087-.039.205-.079.095-.032.055-.016.103-.024.11-.016.103-.016.11-.008h.221l.11.008.103.016.11.016.103.024.118.032.095.032.189.079.118.055.079.047.189.126.174.142.079.071 7.947 7.955a2.243 2.243 0 1 1-3.172 3.172L10.17 5.415z"/><path d="M10.186 15.199 3.825 21.56a2.243 2.243 0 1 1-3.172-3.172l8.073-8.065.087-.071.087-.063.095-.063.095-.055.11-.055.087-.039.205-.079.095-.032.055-.016.103-.024.11-.016.103-.016.11-.008h.221l.11.008.103.016.11.016.103.024.118.032.095.032.189.079.118.055.079.047.189.126.174.142.079.071 7.947 7.955a2.243 2.243 0 1 1-3.172 3.172L10.17 15.2z"/><path d="m10.186 24.984-6.361 6.361a2.243 2.243 0 1 1-3.172-3.172l8.073-8.065.087-.071.087-.063.095-.063.095-.055.11-.055.087-.039.205-.079.095-.032.055-.016.103-.024.11-.016.103-.016.11-.008h.221l.11.008.103.016.11.016.103.024.118.032.095.032.189.079.118.055.079.047.189.126.174.142.079.071 7.947 7.955a2.243 2.243 0 1 1-3.172 3.172l-6.361-6.361z"/></symbol></defs></svg>